<svg width="440" height="100" viewBox="0 0 440 100" fill="none" xmlns="http://www.w3.org/2000/svg">
<path d="M420.819 56.312H271.227C268.465 56.312 266.227 58.5505 266.227 61.3119V78.366C266.227 81.1274 268.465 83.366 271.227 83.366H420.819C423.58 83.366 425.819 81.1274 425.819 78.366V61.312C425.819 58.5505 423.58 56.312 420.819 56.312Z" fill="#F28E25"/>
<path d="M266.127 30.2106V27.6806H277.831V30.2106H273.563V42.3766H270.307V30.2106H266.127ZM287.191 37.1406H280.459V37.4266C280.459 38.3799 280.745 39.0912 281.317 39.5606C281.889 40.0299 282.659 40.2646 283.627 40.2646C284.859 40.2646 285.937 40.1106 286.861 39.8026L287.103 42.0906C285.724 42.4866 284.433 42.6846 283.231 42.6846C281.471 42.6846 280.063 42.2006 279.007 41.2326C277.965 40.2499 277.445 38.6586 277.445 36.4586C277.445 34.8599 277.885 33.5326 278.765 32.4766C279.645 31.4206 280.979 30.8926 282.769 30.8926C284.382 30.8926 285.563 31.2812 286.311 32.0586C287.059 32.8359 287.433 33.8772 287.433 35.1826C287.433 35.7692 287.352 36.4219 287.191 37.1406ZM284.859 35.3586C284.859 34.6692 284.69 34.1192 284.353 33.7086C284.015 33.2832 283.517 33.0706 282.857 33.0706C282.402 33.0706 282.013 33.1586 281.691 33.3346C281.368 33.4959 281.126 33.7086 280.965 33.9726C280.818 34.2366 280.708 34.4859 280.635 34.7206C280.576 34.9406 280.547 35.1532 280.547 35.3586H284.859ZM292.593 33.9506V42.3766H289.513V31.0906H292.197L292.307 32.1466C293.275 31.3106 294.382 30.8926 295.629 30.8926C296.025 30.8926 296.377 30.9219 296.685 30.9806L296.311 33.4886C295.973 33.4446 295.599 33.4226 295.189 33.4226C293.957 33.4226 293.091 33.5986 292.593 33.9506ZM307.82 26.9546V41.9806C306.31 42.4059 304.638 42.6186 302.804 42.6186C299.211 42.6186 297.414 40.7266 297.414 36.9426C297.414 36.1652 297.502 35.4392 297.678 34.7646C297.854 34.0899 298.133 33.4592 298.514 32.8726C298.896 32.2712 299.438 31.8019 300.142 31.4646C300.846 31.1126 301.682 30.9366 302.65 30.9366C303.501 30.9366 304.198 31.0392 304.74 31.2446V26.9546H307.82ZM304.74 40.1106V33.3786C304.3 33.2759 303.78 33.2246 303.178 33.2246C302.328 33.2246 301.675 33.5766 301.22 34.2806C300.766 34.9699 300.538 35.8646 300.538 36.9646C300.538 39.2086 301.44 40.3306 303.244 40.3306C303.743 40.3306 304.242 40.2572 304.74 40.1106ZM319.669 37.1406H312.937V37.4266C312.937 38.3799 313.223 39.0912 313.795 39.5606C314.367 40.0299 315.137 40.2646 316.105 40.2646C317.337 40.2646 318.415 40.1106 319.339 39.8026L319.581 42.0906C318.202 42.4866 316.912 42.6846 315.709 42.6846C313.949 42.6846 312.541 42.2006 311.485 41.2326C310.444 40.2499 309.923 38.6586 309.923 36.4586C309.923 34.8599 310.363 33.5326 311.243 32.4766C312.123 31.4206 313.458 30.8926 315.247 30.8926C316.86 30.8926 318.041 31.2812 318.789 32.0586C319.537 32.8359 319.911 33.8772 319.911 35.1826C319.911 35.7692 319.83 36.4219 319.669 37.1406ZM317.337 35.3586C317.337 34.6692 317.168 34.1192 316.831 33.7086C316.494 33.2832 315.995 33.0706 315.335 33.0706C314.88 33.0706 314.492 33.1586 314.169 33.3346C313.846 33.4959 313.604 33.7086 313.443 33.9726C313.296 34.2366 313.186 34.4859 313.113 34.7206C313.054 34.9406 313.025 35.1532 313.025 35.3586H317.337ZM321.991 47.0626V31.8166C324.059 31.2006 325.768 30.8926 327.117 30.8926C330.754 30.8926 332.573 32.7919 332.573 36.5906C332.573 37.4412 332.485 38.2112 332.309 38.9006C332.133 39.5899 331.847 40.2279 331.451 40.8146C331.055 41.4012 330.49 41.8559 329.757 42.1786C329.038 42.5012 328.173 42.6626 327.161 42.6626C326.662 42.6626 325.966 42.5819 325.071 42.4206V47.0626H321.991ZM325.071 33.5106V39.9566C325.614 40.1179 326.134 40.1986 326.633 40.1986C327.572 40.1986 328.276 39.8832 328.745 39.2526C329.214 38.6072 329.449 37.7126 329.449 36.5686C329.449 34.3832 328.576 33.2906 326.831 33.2906C326.2 33.2906 325.614 33.3639 325.071 33.5106ZM343.626 35.1386V41.8266C343.112 42.0759 342.408 42.2886 341.514 42.4646C340.634 42.6406 339.746 42.7286 338.852 42.7286C337.928 42.7286 337.114 42.6332 336.41 42.4426C335.706 42.2666 335.104 41.9219 334.606 41.4086C334.107 40.8806 333.858 40.1986 333.858 39.3626C333.858 38.1599 334.268 37.2872 335.09 36.7446C335.911 36.1872 336.945 35.9086 338.192 35.9086C338.954 35.9086 339.739 36.0039 340.546 36.1946V35.1826C340.546 34.4786 340.362 34.0019 339.996 33.7526C339.629 33.5032 339.072 33.3786 338.324 33.3786C337.385 33.3786 336.454 33.5179 335.53 33.7966L334.958 31.6846C336.615 31.1419 338.074 30.8706 339.336 30.8706C342.196 30.8706 343.626 32.2932 343.626 35.1386ZM336.784 39.2746C336.784 40.3159 337.495 40.8366 338.918 40.8366C339.563 40.8366 340.106 40.7412 340.546 40.5506V37.8226C339.944 37.6466 339.394 37.5586 338.896 37.5586C337.488 37.5586 336.784 38.1306 336.784 39.2746ZM346.107 42.3766V32.1466C348.058 31.2812 349.986 30.8486 351.893 30.8486C352.524 30.8486 353.081 30.9072 353.565 31.0246C354.049 31.1272 354.511 31.3106 354.951 31.5746C355.391 31.8386 355.728 32.2419 355.963 32.7846C356.198 33.3272 356.315 33.9946 356.315 34.7866V42.3766H353.257V35.0506C353.257 33.7746 352.641 33.1366 351.409 33.1366C350.47 33.1366 349.722 33.2979 349.165 33.6206V42.3766H346.107ZM373.099 26.9546V41.9806C371.589 42.4059 369.917 42.6186 368.083 42.6186C364.49 42.6186 362.693 40.7266 362.693 36.9426C362.693 36.1652 362.781 35.4392 362.957 34.7646C363.133 34.0899 363.412 33.4592 363.793 32.8726C364.175 32.2712 364.717 31.8019 365.421 31.4646C366.125 31.1126 366.961 30.9366 367.929 30.9366C368.78 30.9366 369.477 31.0392 370.019 31.2446V26.9546H373.099ZM370.019 40.1106V33.3786C369.579 33.2759 369.059 33.2246 368.457 33.2246C367.607 33.2246 366.954 33.5766 366.499 34.2806C366.045 34.9699 365.817 35.8646 365.817 36.9646C365.817 39.2086 366.719 40.3306 368.523 40.3306C369.022 40.3306 369.521 40.2572 370.019 40.1106ZM384.574 35.1386V41.8266C384.061 42.0759 383.357 42.2886 382.462 42.4646C381.582 42.6406 380.695 42.7286 379.8 42.7286C378.876 42.7286 378.062 42.6332 377.358 42.4426C376.654 42.2666 376.053 41.9219 375.554 41.4086C375.055 40.8806 374.806 40.1986 374.806 39.3626C374.806 38.1599 375.217 37.2872 376.038 36.7446C376.859 36.1872 377.893 35.9086 379.14 35.9086C379.903 35.9086 380.687 36.0039 381.494 36.1946V35.1826C381.494 34.4786 381.311 34.0019 380.944 33.7526C380.577 33.5032 380.02 33.3786 379.272 33.3786C378.333 33.3786 377.402 33.5179 376.478 33.7966L375.906 31.6846C377.563 31.1419 379.023 30.8706 380.284 30.8706C383.144 30.8706 384.574 32.2932 384.574 35.1386ZM377.732 39.2746C377.732 40.3159 378.443 40.8366 379.866 40.8366C380.511 40.8366 381.054 40.7412 381.494 40.5506V37.8226C380.893 37.6466 380.343 37.5586 379.844 37.5586C378.436 37.5586 377.732 38.1306 377.732 39.2746ZM392.533 40.0226L392.841 42.1786C392.093 42.5012 391.338 42.6626 390.575 42.6626C389.93 42.6626 389.373 42.5819 388.903 42.4206C388.449 42.2592 388.104 42.0759 387.869 41.8706C387.635 41.6506 387.451 41.3499 387.319 40.9686C387.202 40.5872 387.129 40.2572 387.099 39.9786C387.085 39.6852 387.077 39.3039 387.077 38.8346V26.9766H390.245V39.0106C390.245 39.4359 390.304 39.7366 390.421 39.9126C390.553 40.0886 390.788 40.1766 391.125 40.1766C391.653 40.1766 392.123 40.1252 392.533 40.0226ZM403.061 35.1386V41.8266C402.547 42.0759 401.843 42.2886 400.949 42.4646C400.069 42.6406 399.181 42.7286 398.287 42.7286C397.363 42.7286 396.549 42.6332 395.845 42.4426C395.141 42.2666 394.539 41.9219 394.041 41.4086C393.542 40.8806 393.293 40.1986 393.293 39.3626C393.293 38.1599 393.703 37.2872 394.525 36.7446C395.346 36.1872 396.38 35.9086 397.627 35.9086C398.389 35.9086 399.174 36.0039 399.981 36.1946V35.1826C399.981 34.4786 399.797 34.0019 399.431 33.7526C399.064 33.5032 398.507 33.3786 397.759 33.3786C396.82 33.3786 395.889 33.5179 394.965 33.7966L394.393 31.6846C396.05 31.1419 397.509 30.8706 398.771 30.8706C401.631 30.8706 403.061 32.2932 403.061 35.1386ZM396.219 39.2746C396.219 40.3159 396.93 40.8366 398.353 40.8366C398.998 40.8366 399.541 40.7412 399.981 40.5506V37.8226C399.379 37.6466 398.829 37.5586 398.331 37.5586C396.923 37.5586 396.219 38.1306 396.219 39.2746ZM405.542 42.3766V32.2346C407.522 31.3106 409.407 30.8486 411.196 30.8486C412.663 30.8486 413.741 31.1419 414.43 31.7286C415.794 31.1419 417.165 30.8486 418.544 30.8486C421.228 30.8486 422.57 32.1612 422.57 34.7866V42.3766H419.512V35.1166C419.512 33.8406 418.911 33.2026 417.708 33.2026C416.945 33.2026 416.205 33.3786 415.486 33.7306C415.545 34.1706 415.574 34.5226 415.574 34.7866V42.3766H412.56V35.1166C412.56 34.3979 412.391 33.8992 412.054 33.6206C411.717 33.3419 411.255 33.2026 410.668 33.2026C409.92 33.2026 409.231 33.3639 408.6 33.6866V42.3766H405.542Z" fill="#24408D"/>
<path d="M273.28 77V63.9C274.547 63.6334 276.007 63.5 277.66 63.5C278.42 63.5 279.087 63.56 279.66 63.68C280.247 63.8 280.807 64.0134 281.34 64.32C281.873 64.6267 282.287 65.0867 282.58 65.7C282.873 66.3134 283.02 67.0734 283.02 67.98C283.02 69.4334 282.593 70.52 281.74 71.24C280.9 71.9467 279.78 72.3 278.38 72.3C277.7 72.3 276.987 72.22 276.24 72.06V77H273.28ZM276.24 70.12C276.613 70.2 277.08 70.24 277.64 70.24C278.427 70.24 279.047 70.0867 279.5 69.78C279.953 69.46 280.18 68.8867 280.18 68.06C280.18 66.4334 279.34 65.62 277.66 65.62C277.247 65.62 276.773 65.6734 276.24 65.78V70.12ZM293.926 74.68V77H284.706V63.64H293.726V65.96H287.666V68.96H293.386V71.2H287.666V74.68H293.926ZM304.253 75.3H301.773L298.853 67.42L298.413 77H295.693L296.553 63.64H299.873L303.053 72.14L306.193 63.64H309.513L310.373 77H307.613L307.193 67.44L304.253 75.3ZM312.577 76.8V63.84C314.07 63.6267 315.317 63.52 316.317 63.52C319.664 63.52 321.337 64.6734 321.337 66.98C321.337 68.3267 320.837 69.2267 319.837 69.68C321.464 70.1734 322.277 71.2534 322.277 72.92C322.277 73.52 322.197 74.0534 322.037 74.52C321.877 74.9734 321.597 75.4067 321.197 75.82C320.797 76.2334 320.197 76.5534 319.397 76.78C318.61 77.0067 317.644 77.12 316.497 77.12C315.364 77.12 314.057 77.0134 312.577 76.8ZM315.517 70.92V74.7C315.89 74.7534 316.337 74.78 316.857 74.78C318.564 74.78 319.417 74.1334 319.417 72.84C319.417 72.1734 319.204 71.6867 318.777 71.38C318.364 71.0734 317.69 70.92 316.757 70.92H315.517ZM315.417 65.76V68.94H316.437C317.824 68.94 318.517 68.36 318.517 67.2C318.517 66.1734 317.85 65.66 316.517 65.66C316.224 65.66 315.857 65.6934 315.417 65.76ZM333.437 74.68V77H324.217V63.64H333.237V65.96H327.177V68.96H332.897V71.2H327.177V74.68H333.437ZM335.565 77V63.88C336.872 63.6267 338.332 63.5 339.945 63.5C340.705 63.5 341.372 63.56 341.945 63.68C342.532 63.8 343.092 64.0134 343.625 64.32C344.158 64.6267 344.572 65.0867 344.865 65.7C345.158 66.3134 345.305 67.0734 345.305 67.98C345.305 70.1934 344.405 71.5867 342.605 72.16L345.905 77H342.705L339.885 72.42C339.485 72.38 339.032 72.3067 338.525 72.2V77H335.565ZM338.525 70.3C339.138 70.38 339.605 70.42 339.925 70.42C340.725 70.42 341.345 70.2534 341.785 69.92C342.238 69.5867 342.465 68.9667 342.465 68.06C342.465 66.4334 341.625 65.62 339.945 65.62C339.318 65.62 338.845 65.66 338.525 65.74V70.3ZM358.221 70.46C358.221 71.54 358.094 72.4934 357.841 73.32C357.601 74.1334 357.287 74.78 356.901 75.26C356.514 75.74 356.034 76.1267 355.461 76.42C354.887 76.7134 354.314 76.9067 353.741 77C353.181 77.1067 352.561 77.16 351.881 77.16C350.467 77.16 348.981 77.0467 347.421 76.82V63.92C348.967 63.6667 350.487 63.54 351.981 63.54C352.714 63.54 353.367 63.5934 353.941 63.7C354.514 63.8067 355.074 64.0134 355.621 64.32C356.181 64.6267 356.641 65.0334 357.001 65.54C357.374 66.0467 357.667 66.7134 357.881 67.54C358.107 68.3667 358.221 69.34 358.221 70.46ZM350.381 65.92V74.64C350.754 74.6934 351.181 74.72 351.661 74.72C353.074 74.72 354.034 74.3667 354.541 73.66C355.047 72.94 355.301 71.8267 355.301 70.32C355.301 68.8267 355.067 67.7067 354.601 66.96C354.147 66.2 353.267 65.82 351.961 65.82C351.467 65.82 350.941 65.8534 350.381 65.92ZM371.155 77H368.235L367.195 73.84H362.795L361.795 77H358.775L363.415 63.64H366.675L371.155 77ZM366.515 71.66L365.015 66.4L363.475 71.66H366.515ZM373.122 63.64L376.182 69.34L379.242 63.64H382.262L377.662 71.72V77H374.702V71.72L370.082 63.64H373.122ZM393.519 77H390.599L389.559 73.84H385.159L384.159 77H381.139L385.779 63.64H389.039L393.519 77ZM388.879 71.66L387.379 66.4L385.839 71.66H388.879ZM405.784 77H402.864L401.824 73.84H397.424L396.424 77H393.404L398.044 63.64H401.304L405.784 77ZM401.144 71.66L399.644 66.4L398.104 71.66H401.144ZM418.97 77H415.81L409.87 67.66V77H407.03V63.64H410.17L416.09 73V63.64H418.97V77Z" fill="white"/>
<path fill-rule="evenodd" clip-rule="evenodd" d="M248.722 83.1908C248.762 83.6219 248.643 84.0529 248.39 84.3918C248.136 84.7307 247.769 84.9507 247.365 85.005C246.961 84.9507 246.593 84.7307 246.34 84.3918C246.086 84.0529 245.967 83.6219 246.008 83.1908V24.2384C245.967 23.8073 246.086 23.3763 246.34 23.0374C246.593 22.6985 246.961 22.4785 247.365 22.4242C247.769 22.4785 248.136 22.6985 248.39 23.0374C248.643 23.3763 248.762 23.8073 248.722 24.2384V83.1908Z" fill="url(#paint0_linear_1038_12992)"/>
<path d="M221.504 33.031C223.857 33.031 225.764 31.1036 225.764 28.7257C225.764 26.3481 223.856 24.4203 221.504 24.4203C219.152 24.4203 217.245 26.3481 217.245 28.7257C217.244 31.1036 219.152 33.031 221.504 33.031Z" fill="#24408D"/>
<path d="M93.7099 76.9021V71.907H93.166V77.3862H96.0631V76.9021H93.7099Z" stroke="#24408D" stroke-width="0.869" stroke-miterlimit="2.693"/>
<path d="M98.0595 74.876C98.0595 74.7995 98.0741 74.7032 98.104 74.5886C98.1336 74.4743 98.1852 74.3342 98.2584 74.1702C98.3313 74.0062 98.4597 73.8681 98.6436 73.7563C98.8275 73.6444 99.0465 73.5879 99.3009 73.5879C99.6688 73.5879 99.9476 73.7029 100.137 73.9326C100.326 74.1623 100.397 74.4767 100.348 74.8756H98.0595V74.876ZM100.705 77.2054L100.616 76.7627C100.275 76.943 99.8692 77.0334 99.3986 77.0334C98.9331 77.0334 98.5908 76.8937 98.3718 76.615C98.1529 76.3364 98.0434 75.9045 98.0434 75.319H100.843C100.957 74.6742 100.886 74.1555 100.632 73.765C100.378 73.3741 99.926 73.1783 99.2769 73.1783C98.9575 73.1783 98.679 73.2372 98.4408 73.3546C98.2029 73.472 98.0174 73.6348 97.8851 73.8426C97.7523 74.0504 97.6539 74.2777 97.5889 74.5237C97.5239 74.7693 97.4912 75.0348 97.4912 75.319C97.4912 76.0299 97.6495 76.5713 97.9662 76.943C98.2824 77.3152 98.7519 77.5007 99.3742 77.5007C99.8287 77.5007 100.272 77.4024 100.705 77.2054Z" stroke="#24408D" stroke-width="0.869" stroke-miterlimit="2.693"/>
<path d="M102.88 77.3857H103.391V73.9083C103.688 73.7228 104.062 73.6297 104.511 73.6297C104.857 73.6297 105.114 73.6994 105.282 73.8387C105.45 73.9784 105.534 74.2471 105.534 74.6463V77.3857H106.037V74.515C106.037 74.2638 106.004 74.0504 105.939 73.8757C106.285 73.7117 106.667 73.6297 107.083 73.6297C107.43 73.6297 107.687 73.6994 107.855 73.8387C108.022 73.9784 108.106 74.2471 108.106 74.6463V77.3857H108.609V74.515C108.609 74.007 108.49 73.654 108.252 73.4573C108.014 73.2607 107.676 73.162 107.238 73.162C106.68 73.162 106.177 73.2798 105.728 73.5147C105.517 73.2798 105.163 73.162 104.665 73.162C104.167 73.162 103.572 73.2989 102.88 73.572V77.3857V77.3857Z" stroke="#24408D" stroke-width="0.869" stroke-miterlimit="2.693"/>
<path d="M113.133 77.3205C113.39 77.2003 113.589 77.0307 113.73 76.8118C113.87 76.5932 113.972 76.3544 114.034 76.0941C114.096 75.8345 114.127 75.546 114.127 75.2287C114.127 74.5345 113.974 74.0163 113.669 73.6747C113.363 73.3332 112.959 73.162 112.456 73.162C112.087 73.162 111.687 73.2528 111.254 73.4331V71.6451H110.751V77.2468C111.168 77.4164 111.657 77.5012 112.22 77.5012C112.572 77.5008 112.876 77.4407 113.133 77.3205ZM112.366 73.6377C112.745 73.6377 113.042 73.7675 113.259 74.0274C113.475 74.2869 113.584 74.6906 113.584 75.2371C113.584 75.7732 113.479 76.2067 113.271 76.5375C113.063 76.8683 112.721 77.0335 112.245 77.0335C111.828 77.0335 111.498 76.9757 111.254 76.8611V73.9084C111.671 73.7281 112.042 73.6377 112.366 73.6377Z" stroke="#24408D" stroke-width="0.869" stroke-miterlimit="2.693"/>
<path d="M117.455 77.058C116.719 77.058 116.351 76.8148 116.351 76.328C116.351 75.7867 116.727 75.516 117.48 75.516C117.793 75.516 118.099 75.5459 118.396 75.6064V76.9267C118.115 77.0139 117.801 77.058 117.455 77.058ZM118.611 73.5349C118.392 73.3084 118.029 73.195 117.52 73.195C117.347 73.195 117.12 73.2197 116.838 73.2686C116.557 73.318 116.321 73.3757 116.132 73.4414L116.229 73.8434C116.706 73.7176 117.101 73.6543 117.415 73.6543C117.799 73.6543 118.058 73.7351 118.194 73.8963C118.329 74.0575 118.396 74.3131 118.396 74.663V75.2537C118.039 75.1661 117.696 75.1223 117.366 75.1223C117.16 75.1223 116.971 75.1414 116.798 75.1796C116.624 75.2187 116.461 75.2812 116.307 75.3687C116.153 75.4563 116.032 75.5833 115.945 75.7501C115.859 75.9172 115.816 76.1179 115.816 76.3531C115.816 76.7468 115.954 77.0338 116.229 77.2141C116.506 77.3948 116.857 77.4847 117.285 77.4847C117.901 77.4847 118.453 77.3972 118.94 77.2228V74.6307C118.94 74.1272 118.83 73.7622 118.611 73.5349Z" stroke="#24408D" stroke-width="0.869" stroke-miterlimit="2.693"/>
<path d="M123.557 77.4183C123.681 77.5114 123.744 77.648 123.744 77.8287C123.744 78.1678 123.627 78.4066 123.395 78.5468C123.162 78.6861 122.824 78.7553 122.38 78.7553C122.028 78.7553 121.741 78.698 121.516 78.583C121.292 78.4683 121.18 78.3043 121.18 78.091C121.18 77.8888 121.231 77.7288 121.334 77.6113C121.437 77.4935 121.594 77.3829 121.805 77.279H122.876C123.206 77.279 123.433 77.3259 123.557 77.4183ZM122.364 73.6623C122.732 73.6623 122.997 73.7431 123.159 73.9043C123.322 74.0651 123.403 74.3103 123.403 74.6383C123.403 75.2999 123.057 75.6306 122.364 75.6306C121.699 75.6306 121.366 75.2975 121.366 74.63C121.366 73.9847 121.699 73.6623 122.364 73.6623ZM120.887 74.622C120.887 75.2565 121.109 75.6748 121.553 75.877C121.39 76.0239 121.298 76.2389 121.277 76.5203C121.255 76.8021 121.312 76.9948 121.447 77.0987C120.922 77.3888 120.66 77.7546 120.66 78.1977C120.66 78.5257 120.804 78.7756 121.09 78.9484C121.377 79.1207 121.775 79.2063 122.283 79.2063C123.62 79.2063 124.287 78.7251 124.287 77.763C124.287 77.4458 124.185 77.2149 123.979 77.07C123.774 76.9255 123.463 76.8447 123.046 76.8284H121.821C121.745 76.7245 121.714 76.5959 121.728 76.4427C121.741 76.2894 121.789 76.1362 121.87 75.9833C122.016 76.0164 122.181 76.0327 122.365 76.0327C122.825 76.0327 123.189 75.9165 123.456 75.684C123.724 75.4519 123.858 75.1032 123.858 74.6383C123.858 74.1841 123.72 73.8538 123.445 73.646C123.693 73.6623 124.042 73.6324 124.491 73.5556L124.451 73.2025C124.023 73.263 123.66 73.2933 123.363 73.2933C123.282 73.2933 123.125 73.2849 122.892 73.2682C122.66 73.2519 122.508 73.2435 122.438 73.2435C121.404 73.2384 120.887 73.6977 120.887 74.622Z" stroke="#24408D" stroke-width="0.869" stroke-miterlimit="2.693"/>
<path d="M127.517 77.058C126.781 77.058 126.414 76.8148 126.414 76.328C126.414 75.7867 126.79 75.516 127.542 75.516C127.855 75.516 128.161 75.5459 128.459 75.6064V76.9267C128.178 77.0139 127.864 77.058 127.517 77.058ZM128.674 73.5349C128.455 73.3084 128.091 73.195 127.583 73.195C127.41 73.195 127.182 73.2197 126.901 73.2686C126.62 73.318 126.384 73.3757 126.195 73.4414L126.293 73.8434C126.769 73.7176 127.164 73.6543 127.478 73.6543C127.862 73.6543 128.121 73.7351 128.257 73.8963C128.392 74.0575 128.46 74.3131 128.46 74.663V75.2537C128.103 75.1661 127.759 75.1223 127.429 75.1223C127.224 75.1223 127.034 75.1414 126.861 75.1796C126.688 75.2187 126.525 75.2812 126.37 75.3687C126.216 75.4563 126.096 75.5833 126.009 75.7501C125.922 75.9172 125.879 76.1179 125.879 76.3531C125.879 76.7468 126.018 77.0338 126.293 77.2141C126.569 77.3948 126.921 77.4847 127.348 77.4847C127.965 77.4847 128.517 77.3972 129.004 77.2228V74.6307C129.003 74.1272 128.893 73.7622 128.674 73.5349Z" stroke="#24408D" stroke-width="0.869" stroke-miterlimit="2.693"/>
<path d="M136.544 75.4341H134.386L135.462 72.3285L136.544 75.4341ZM136.709 75.9098L137.223 77.3862H137.791L135.827 71.907H135.105L133.141 77.3862H133.709L134.221 75.9098H136.709V75.9098Z" stroke="#24408D" stroke-width="0.869" stroke-miterlimit="2.693"/>
<path d="M139.479 77.3857H139.99V73.9083C140.287 73.7228 140.66 73.6297 141.11 73.6297C141.456 73.6297 141.713 73.6994 141.881 73.8387C142.049 73.9784 142.133 74.2471 142.133 74.6463V77.3857H142.636V74.515C142.636 74.2638 142.603 74.0504 142.538 73.8757C142.884 73.7117 143.266 73.6297 143.682 73.6297C144.029 73.6297 144.285 73.6994 144.453 73.8387C144.621 73.978 144.705 74.2471 144.705 74.6463V77.3857H145.208V74.515C145.208 74.007 145.089 73.654 144.851 73.4573C144.613 73.2607 144.275 73.162 143.837 73.162C143.279 73.162 142.776 73.2798 142.327 73.5147C142.116 73.2798 141.762 73.162 141.264 73.162C140.767 73.162 140.172 73.2989 139.479 73.572V77.3857H139.479Z" stroke="#24408D" stroke-width="0.869" stroke-miterlimit="2.693"/>
<path d="M147.756 71.7103H147.245V72.4483H147.756V71.7103ZM147.245 77.3861H147.756V73.2687H147.245V77.3861Z" stroke="#24408D" stroke-width="0.869" stroke-miterlimit="2.693"/>
<path d="M149.833 76.6151C149.833 77.2002 150.104 77.4928 150.645 77.4928C150.883 77.4928 151.116 77.4542 151.343 77.3777L151.302 76.9841C151.124 77.0334 150.948 77.0585 150.774 77.0585C150.645 77.0585 150.543 77.0255 150.47 76.9598C150.397 76.8945 150.361 76.7767 150.361 76.6071V71.6442H149.833V76.6151Z" stroke="#24408D" stroke-width="0.869" stroke-miterlimit="2.693"/>
<path d="M156.059 76.9021L159.028 72.3883L158.971 71.907H155.449L155.522 72.391H158.403L155.409 76.9431L155.458 77.3862H159.24V76.9021H156.059Z" stroke="#24408D" stroke-width="0.869" stroke-miterlimit="2.693"/>
<path d="M162.453 77.058C161.717 77.058 161.349 76.8148 161.349 76.328C161.349 75.7867 161.725 75.516 162.477 75.516C162.79 75.516 163.096 75.5459 163.394 75.6064V76.9267C163.113 77.0139 162.799 77.058 162.453 77.058ZM163.609 73.5349C163.39 73.3084 163.027 73.195 162.518 73.195C162.345 73.195 162.117 73.2197 161.836 73.2686C161.554 73.318 161.319 73.3757 161.13 73.4414L161.227 73.8434C161.703 73.7176 162.098 73.6543 162.412 73.6543C162.797 73.6543 163.056 73.7351 163.192 73.8963C163.327 74.0575 163.395 74.3131 163.395 74.663V75.2537C163.037 75.1661 162.694 75.1223 162.364 75.1223C162.159 75.1223 161.969 75.1414 161.796 75.1796C161.623 75.2187 161.46 75.2812 161.305 75.3687C161.151 75.4563 161.031 75.5833 160.944 75.7501C160.857 75.9172 160.814 76.1179 160.814 76.3531C160.814 76.7468 160.952 77.0338 161.228 77.2141C161.504 77.3948 161.856 77.4847 162.283 77.4847C162.9 77.4847 163.452 77.3972 163.939 77.2228V74.6307C163.938 74.1272 163.828 73.7622 163.609 73.5349Z" stroke="#24408D" stroke-width="0.869" stroke-miterlimit="2.693"/>
<path d="M166.015 71.7266V77.3857H166.526V75.3274H167.165L168.709 77.3857H169.351L167.638 75.073L169.091 73.2687H168.442L167.175 74.868H166.526V71.6446L166.015 71.7266Z" stroke="#24408D" stroke-width="0.869" stroke-miterlimit="2.693"/>
<path d="M172.256 77.058C171.52 77.058 171.152 76.8148 171.152 76.328C171.152 75.7867 171.528 75.516 172.28 75.516C172.594 75.516 172.899 75.5459 173.197 75.6064V76.9267C172.916 77.0139 172.602 77.058 172.256 77.058ZM173.412 73.5349C173.193 73.3084 172.829 73.195 172.321 73.195C172.147 73.195 171.92 73.2197 171.639 73.2686C171.357 73.318 171.122 73.3757 170.933 73.4414L171.03 73.8434C171.506 73.7176 171.901 73.6543 172.215 73.6543C172.599 73.6543 172.859 73.7351 172.994 73.8963C173.13 74.0575 173.197 74.3131 173.197 74.663V75.2537C172.84 75.1661 172.497 75.1223 172.167 75.1223C171.961 75.1223 171.772 75.1414 171.599 75.1796C171.426 75.2187 171.262 75.2812 171.108 75.3687C170.954 75.4563 170.833 75.5833 170.747 75.7501C170.66 75.9172 170.617 76.1179 170.617 76.3531C170.617 76.7468 170.755 77.0338 171.031 77.2141C171.307 77.3948 171.659 77.4847 172.086 77.4847C172.703 77.4847 173.254 77.3972 173.741 77.2228V74.6307C173.74 74.1272 173.631 73.7622 173.412 73.5349Z" stroke="#24408D" stroke-width="0.869" stroke-miterlimit="2.693"/>
<path d="M177.027 77.0414C176.897 77.0414 176.793 77.0278 176.715 77.0004C176.636 76.9729 176.581 76.9275 176.548 76.865C176.516 76.8021 176.495 76.7428 176.488 76.6887C176.479 76.6342 176.476 76.555 176.476 76.4507V73.6946H177.766L177.847 73.2687H176.483V72.1529L175.964 72.227V73.2687H175.396V73.6946H175.964V76.3687C175.964 76.7787 176.033 77.0649 176.171 77.2257C176.309 77.3869 176.583 77.4673 176.995 77.4673C177.308 77.4673 177.595 77.4235 177.855 77.3363L177.774 76.9343C177.514 77.0059 177.265 77.0414 177.027 77.0414Z" stroke="#24408D" stroke-width="0.869" stroke-miterlimit="2.693"/>
<path d="M184.022 77.4928C184.417 77.4928 184.939 77.4188 185.588 77.2711V71.546H185.077V73.3507C184.666 73.2576 184.314 73.211 184.022 73.211C182.789 73.211 182.172 73.9741 182.172 75.499C182.172 76.8285 182.789 77.4928 184.022 77.4928ZM184.184 77.0578C183.735 77.0578 183.384 76.9387 183.129 76.7011C182.875 76.4631 182.748 76.0598 182.748 75.491C182.748 74.8952 182.845 74.4414 183.04 74.1297C183.234 73.818 183.557 73.6624 184.006 73.6624C184.362 73.6624 184.714 73.7221 185.06 73.8427L185.077 76.9101C184.747 77.0084 184.449 77.0578 184.184 77.0578Z" stroke="#24408D" stroke-width="0.869" stroke-miterlimit="2.693"/>
<path d="M189.119 77.058C188.383 77.058 188.015 76.8148 188.015 76.328C188.015 75.7867 188.391 75.516 189.143 75.516C189.456 75.516 189.762 75.5459 190.06 75.6064V76.9267C189.779 77.0139 189.465 77.058 189.119 77.058ZM190.275 73.5349C190.056 73.3084 189.693 73.195 189.184 73.195C189.011 73.195 188.783 73.2197 188.502 73.2686C188.22 73.318 187.985 73.3757 187.796 73.4414L187.893 73.8434C188.369 73.7176 188.764 73.6543 189.078 73.6543C189.463 73.6543 189.722 73.7351 189.858 73.8963C189.993 74.0575 190.061 74.3131 190.061 74.663V75.2537C189.703 75.1661 189.36 75.1223 189.03 75.1223C188.825 75.1223 188.635 75.1414 188.462 75.1796C188.289 75.2187 188.126 75.2812 187.971 75.3687C187.817 75.4563 187.697 75.5833 187.61 75.7501C187.523 75.9172 187.48 76.1179 187.48 76.3531C187.48 76.7468 187.618 77.0338 187.894 77.2141C188.17 77.3948 188.522 77.4847 188.949 77.4847C189.566 77.4847 190.118 77.3972 190.605 77.2228V74.6307C190.604 74.1272 190.494 73.7622 190.275 73.5349Z" stroke="#24408D" stroke-width="0.869" stroke-miterlimit="2.693"/>
<path d="M192.673 77.3857H193.184V73.9083C193.481 73.7228 193.868 73.6297 194.345 73.6297C194.691 73.6297 194.947 73.6994 195.115 73.8387C195.283 73.9784 195.367 74.2471 195.367 74.6463V77.3857H195.87V74.515C195.87 74.007 195.751 73.654 195.513 73.4573C195.275 73.2607 194.937 73.162 194.499 73.162C193.974 73.162 193.365 73.2989 192.673 73.572V77.3857Z" stroke="#24408D" stroke-width="0.869" stroke-miterlimit="2.693"/>
<path d="M201.64 76.8002L201.157 71.907H200.584L201.138 77.3858H202.013L203.59 73.0196L205.194 77.3858H205.933L206.598 71.907H206.022L205.513 76.8022L203.833 72.3485L203.289 72.3349L201.64 76.8002Z" stroke="#24408D" stroke-width="0.869" stroke-miterlimit="2.693"/>
<path d="M209.812 77.058C209.076 77.058 208.708 76.8148 208.708 76.328C208.708 75.7867 209.084 75.516 209.836 75.516C210.15 75.516 210.455 75.5459 210.753 75.6064V76.9267C210.472 77.0139 210.158 77.058 209.812 77.058ZM210.969 73.5349C210.75 73.3084 210.386 73.195 209.877 73.195C209.704 73.195 209.476 73.2197 209.195 73.2686C208.914 73.318 208.679 73.3757 208.489 73.4414L208.587 73.8434C209.063 73.7176 209.458 73.6543 209.772 73.6543C210.156 73.6543 210.416 73.7351 210.551 73.8963C210.686 74.0575 210.754 74.3131 210.754 74.663V75.2537C210.397 75.1661 210.054 75.1223 209.723 75.1223C209.518 75.1223 209.328 75.1414 209.156 75.1796C208.982 75.2187 208.819 75.2812 208.665 75.3687C208.511 75.4563 208.39 75.5833 208.303 75.7501C208.217 75.9172 208.174 76.1179 208.174 76.3531C208.174 76.7468 208.312 77.0338 208.587 77.2141C208.863 77.3948 209.215 77.4847 209.642 77.4847C210.259 77.4847 210.811 77.3972 211.298 77.2228V74.6307C211.297 74.1272 211.188 73.7622 210.969 73.5349Z" stroke="#24408D" stroke-width="0.869" stroke-miterlimit="2.693"/>
<path d="M213.374 71.7266V77.3857H213.885V75.3274H214.524L216.068 77.3857H216.709L214.997 75.073L216.45 73.2687H215.801L214.534 74.868H213.885V71.6446L213.374 71.7266Z" stroke="#24408D" stroke-width="0.869" stroke-miterlimit="2.693"/>
<path d="M219.615 77.058C218.879 77.058 218.511 76.8148 218.511 76.328C218.511 75.7867 218.887 75.516 219.639 75.516C219.953 75.516 220.258 75.5459 220.556 75.6064V76.9267C220.275 77.0139 219.962 77.058 219.615 77.058ZM220.771 73.5349C220.552 73.3084 220.189 73.195 219.68 73.195C219.507 73.195 219.279 73.2197 218.998 73.2686C218.717 73.318 218.481 73.3757 218.292 73.4414L218.389 73.8434C218.865 73.7176 219.26 73.6543 219.574 73.6543C219.959 73.6543 220.218 73.7351 220.354 73.8963C220.489 74.0575 220.557 74.3131 220.557 74.663V75.2537C220.199 75.1661 219.856 75.1223 219.526 75.1223C219.321 75.1223 219.131 75.1414 218.958 75.1796C218.785 75.2187 218.622 75.2812 218.467 75.3687C218.313 75.4563 218.193 75.5833 218.106 75.7501C218.02 75.9172 217.977 76.1179 217.977 76.3531C217.977 76.7468 218.114 77.0338 218.39 77.2141C218.666 77.3948 219.018 77.4847 219.445 77.4847C220.062 77.4847 220.614 77.3972 221.101 77.2228V74.6307C221.1 74.1272 220.991 73.7622 220.771 73.5349Z" stroke="#24408D" stroke-width="0.869" stroke-miterlimit="2.693"/>
<path d="M224.078 77.3857V73.6953H225.312V73.2686H224.078V72.8833C224.078 72.506 224.147 72.2516 224.285 72.1206C224.423 71.9893 224.641 71.9236 224.938 71.9236C225.16 71.9236 225.42 71.9399 225.717 71.973L225.799 71.5463C225.501 71.4973 225.225 71.4726 224.971 71.4726C224.5 71.4726 224.148 71.5817 223.916 71.8006C223.683 72.0195 223.567 72.3885 223.567 72.9076V73.2682H222.747V73.6949H223.567V77.3853H224.078V77.3857Z" stroke="#24408D" stroke-width="0.869" stroke-miterlimit="2.693"/>
<path d="M96.0631 76.9016V77.3857H93.166V71.9069H93.7099V76.9016H96.0631Z" fill="#24408D"/>
<path d="M99.3743 77.5004C98.752 77.5004 98.2829 77.3145 97.9663 76.9431C97.65 76.5709 97.4917 76.03 97.4917 75.3191C97.4917 75.0349 97.5244 74.7694 97.589 74.5234C97.654 74.2774 97.7528 74.0505 97.8851 73.8427C98.0175 73.6353 98.203 73.4721 98.4413 73.3547C98.6791 73.2369 98.958 73.1783 99.2774 73.1783C99.9264 73.1783 100.378 73.3738 100.633 73.7651C100.887 74.1556 100.957 74.6738 100.844 75.3191H98.0439C98.0439 75.9042 98.1534 76.3361 98.3723 76.6151C98.5917 76.8937 98.9336 77.0335 99.3991 77.0335C99.8697 77.0335 100.275 76.9431 100.616 76.7624L100.705 77.2054C100.272 77.4021 99.8284 77.5004 99.3743 77.5004ZM100.348 74.876C100.397 74.4768 100.326 74.1623 100.137 73.9327C99.9473 73.703 99.6689 73.5883 99.3006 73.5883C99.0462 73.5883 98.8272 73.6445 98.6433 73.7563C98.4594 73.8686 98.331 74.0067 98.2577 74.1707C98.1845 74.3347 98.1333 74.4744 98.1033 74.589C98.0734 74.7037 98.0588 74.7996 98.0588 74.8764H100.348V74.876Z" fill="#24408D"/>
<path d="M102.88 73.572C103.572 73.2985 104.167 73.162 104.665 73.162C105.163 73.162 105.517 73.2794 105.728 73.5147C106.177 73.2794 106.68 73.162 107.238 73.162C107.676 73.162 108.014 73.2603 108.252 73.4569C108.49 73.654 108.609 74.0066 108.609 74.515V77.3857H108.106V74.6463C108.106 74.2471 108.022 73.9776 107.854 73.8383C107.687 73.699 107.429 73.6293 107.083 73.6293C106.667 73.6293 106.285 73.7113 105.939 73.8753C106.004 74.0504 106.036 74.2638 106.036 74.515V77.3857H105.534V74.6463C105.534 74.2471 105.45 73.9776 105.282 73.8383C105.114 73.699 104.857 73.6293 104.511 73.6293C104.061 73.6293 103.688 73.7224 103.391 73.9083V77.3857H102.879V73.572H102.88Z" fill="#24408D"/>
<path d="M112.22 77.5003C111.657 77.5003 111.168 77.4156 110.751 77.246V71.6442H111.254V73.4323C111.687 73.2519 112.087 73.1616 112.455 73.1616C112.959 73.1616 113.363 73.3328 113.669 73.6739C113.974 74.0158 114.127 74.5341 114.127 75.2283C114.127 75.5455 114.096 75.8337 114.034 76.0936C113.972 76.3532 113.87 76.5928 113.73 76.8113C113.589 77.0302 113.39 77.1998 113.133 77.3196C112.876 77.4402 112.572 77.5003 112.22 77.5003ZM111.254 73.9083V76.8611C111.498 76.9757 111.828 77.0334 112.245 77.0334C112.72 77.0334 113.063 76.8678 113.271 76.5371C113.479 76.2063 113.583 75.7732 113.583 75.237C113.583 74.6905 113.475 74.2869 113.259 74.0274C113.042 73.7678 112.745 73.6377 112.366 73.6377C112.042 73.6377 111.671 73.728 111.254 73.9083Z" fill="#24408D"/>
<path d="M118.94 74.63V77.2217C118.453 77.3965 117.901 77.484 117.284 77.484C116.857 77.484 116.505 77.3937 116.229 77.2134C115.953 77.033 115.815 76.7457 115.815 76.352C115.815 76.1171 115.858 75.9161 115.945 75.7493C116.032 75.5825 116.152 75.4556 116.307 75.368C116.461 75.2804 116.624 75.2175 116.798 75.1789C116.971 75.1407 117.16 75.1216 117.366 75.1216C117.695 75.1216 118.039 75.165 118.396 75.2526V74.6623C118.396 74.3124 118.329 74.0568 118.193 73.8952C118.058 73.734 117.798 73.6536 117.414 73.6536C117.101 73.6536 116.706 73.7165 116.23 73.8423L116.132 73.4402C116.322 73.3746 116.557 73.3172 116.838 73.2679C117.119 73.2185 117.347 73.1938 117.52 73.1938C118.028 73.1938 118.392 73.3073 118.611 73.5342C118.83 73.7623 118.94 74.1273 118.94 74.63ZM118.396 76.9264V75.606C118.098 75.5463 117.793 75.5157 117.479 75.5157C116.727 75.5157 116.351 75.7867 116.351 76.3277C116.351 76.8145 116.719 77.0577 117.454 77.0577C117.801 77.0577 118.115 77.0139 118.396 76.9264Z" fill="#24408D"/>
<path d="M122.437 73.244C122.508 73.244 122.659 73.2523 122.892 73.2686C123.124 73.285 123.281 73.2933 123.362 73.2933C123.66 73.2933 124.022 73.2635 124.45 73.203L124.49 73.556C124.041 73.6325 123.692 73.6627 123.443 73.6464C123.719 73.8538 123.857 74.185 123.857 74.6387C123.857 75.1033 123.723 75.452 123.456 75.6844C123.188 75.9169 122.824 76.0331 122.364 76.0331C122.18 76.0331 122.015 76.0164 121.869 75.9837C121.788 76.137 121.741 76.2902 121.727 76.4431C121.714 76.5963 121.745 76.7245 121.82 76.8284H123.046C123.462 76.8447 123.773 76.9255 123.979 77.0704C124.184 77.2153 124.287 77.4462 124.287 77.7634C124.287 78.7255 123.619 79.2068 122.283 79.2068C121.774 79.2068 121.376 79.1208 121.09 78.9484C120.803 78.7761 120.66 78.5261 120.66 78.1981C120.66 77.7551 120.922 77.3889 121.447 77.0991C121.311 76.9948 121.255 76.8025 121.276 76.5207C121.298 76.2393 121.39 76.0243 121.552 75.8771C121.109 75.6745 120.887 75.2561 120.887 74.622C120.887 73.6973 121.404 73.2384 122.437 73.244ZM122.875 77.279H121.804C121.593 77.3829 121.436 77.4935 121.333 77.611C121.23 77.7288 121.179 77.8884 121.179 78.091C121.179 78.304 121.291 78.468 121.515 78.583C121.74 78.6976 122.028 78.7554 122.38 78.7554C122.823 78.7554 123.161 78.6853 123.394 78.5464C123.626 78.4067 123.743 78.1674 123.743 77.8283C123.743 77.648 123.681 77.5111 123.556 77.4183C123.432 77.3256 123.205 77.279 122.875 77.279ZM121.366 74.63C121.366 75.2971 121.699 75.6307 122.364 75.6307C123.056 75.6307 123.403 75.2999 123.403 74.6383C123.403 74.3103 123.322 74.0655 123.159 73.9039C122.997 73.7431 122.732 73.6623 122.364 73.6623C121.699 73.6623 121.366 73.9847 121.366 74.63Z" fill="#24408D"/>
<path d="M129.002 74.63V77.2217C128.515 77.3965 127.963 77.484 127.347 77.484C126.919 77.484 126.568 77.3937 126.292 77.2134C126.016 77.033 125.878 76.7457 125.878 76.352C125.878 76.1171 125.921 75.9161 126.008 75.7493C126.094 75.5825 126.214 75.4556 126.369 75.368C126.523 75.2804 126.686 75.2175 126.86 75.1789C127.033 75.1407 127.222 75.1216 127.428 75.1216C127.758 75.1216 128.101 75.165 128.458 75.2526V74.6623C128.458 74.3124 128.39 74.0568 128.255 73.8952C128.12 73.734 127.86 73.6536 127.476 73.6536C127.162 73.6536 126.767 73.7165 126.291 73.8423L126.194 73.4402C126.383 73.3746 126.618 73.3172 126.9 73.2679C127.181 73.2185 127.408 73.1938 127.581 73.1938C128.09 73.1938 128.454 73.3073 128.673 73.5342C128.892 73.7623 129.002 74.1273 129.002 74.63ZM128.458 76.9264V75.606C128.161 75.5463 127.855 75.5157 127.542 75.5157C126.79 75.5157 126.414 75.7867 126.414 76.3277C126.414 76.8145 126.782 77.0577 127.518 77.0577C127.863 77.0577 128.177 77.0139 128.458 76.9264Z" fill="#24408D"/>
<path d="M134.221 75.9093L133.709 77.3857H133.141L135.105 71.9069H135.827L137.791 77.3857H137.223L136.709 75.9093H134.221ZM135.462 72.328L134.386 75.4336H136.544L135.462 72.328Z" fill="#24408D"/>
<path d="M139.479 73.572C140.172 73.2985 140.767 73.162 141.264 73.162C141.762 73.162 142.116 73.2794 142.327 73.5147C142.777 73.2794 143.279 73.162 143.837 73.162C144.275 73.162 144.613 73.2603 144.851 73.4569C145.089 73.654 145.208 74.0066 145.208 74.515V77.3857H144.705V74.6463C144.705 74.2471 144.621 73.9776 144.453 73.8383C144.285 73.699 144.029 73.6293 143.682 73.6293C143.266 73.6293 142.884 73.7113 142.538 73.8753C142.603 74.0504 142.636 74.2638 142.636 74.515V77.3857H142.133V74.6463C142.133 74.2471 142.049 73.9776 141.881 73.8383C141.713 73.699 141.456 73.6293 141.11 73.6293C140.661 73.6293 140.287 73.7224 139.99 73.9083V77.3857H139.479V73.572H139.479Z" fill="#24408D"/>
<path d="M147.246 72.4483V71.7103H147.757V72.4483H147.246ZM147.757 73.2683V77.3857H147.246V73.2683H147.757Z" fill="#24408D"/>
<path d="M149.834 71.6442H150.361V76.6067C150.361 76.7763 150.398 76.8937 150.471 76.9594C150.544 77.0251 150.645 77.0577 150.775 77.0577C150.948 77.0577 151.124 77.033 151.303 76.9837L151.343 77.3773C151.116 77.4538 150.883 77.492 150.646 77.492C150.105 77.492 149.834 77.1998 149.834 76.6147V71.6442Z" fill="#24408D"/>
<path d="M159.232 76.9016V77.3857H155.45L155.4 76.943L158.395 72.3905H155.514L155.441 71.9069H158.963L159.02 72.3881L156.051 76.9016H159.232Z" fill="#24408D"/>
<path d="M163.922 74.63V77.2217C163.435 77.3965 162.883 77.484 162.267 77.484C161.839 77.484 161.487 77.3937 161.212 77.2134C160.936 77.033 160.798 76.7457 160.798 76.352C160.798 76.1171 160.841 75.9161 160.927 75.7493C161.014 75.5825 161.134 75.4556 161.289 75.368C161.443 75.2804 161.606 75.2175 161.78 75.1789C161.953 75.1407 162.142 75.1216 162.348 75.1216C162.678 75.1216 163.021 75.165 163.378 75.2526V74.6623C163.378 74.3124 163.31 74.0568 163.175 73.8952C163.04 73.734 162.78 73.6536 162.396 73.6536C162.082 73.6536 161.687 73.7165 161.211 73.8423L161.114 73.4402C161.303 73.3746 161.538 73.3172 161.819 73.2679C162.101 73.2185 162.328 73.1938 162.501 73.1938C163.01 73.1938 163.374 73.3073 163.593 73.5342C163.812 73.7623 163.922 74.1273 163.922 74.63ZM163.378 76.9264V75.606C163.081 75.5463 162.775 75.5157 162.461 75.5157C161.71 75.5157 161.333 75.7867 161.333 76.3277C161.333 76.8145 161.702 77.0577 162.437 77.0577C162.783 77.0577 163.097 77.0139 163.378 76.9264Z" fill="#24408D"/>
<path d="M166.511 71.6442V74.8676H167.159L168.426 73.2683H169.075L167.622 75.0726L169.335 77.3857H168.694L167.149 75.327H166.511V77.3857H166V71.7262L166.511 71.6442Z" fill="#24408D"/>
<path d="M173.725 74.63V77.2217C173.238 77.3965 172.686 77.484 172.07 77.484C171.642 77.484 171.29 77.3937 171.015 77.2134C170.738 77.033 170.601 76.7457 170.601 76.352C170.601 76.1171 170.644 75.9161 170.73 75.7493C170.817 75.5825 170.937 75.4556 171.091 75.368C171.246 75.2804 171.409 75.2175 171.582 75.1789C171.755 75.1407 171.945 75.1216 172.15 75.1216C172.48 75.1216 172.824 75.165 173.181 75.2526V74.6623C173.181 74.3124 173.113 74.0568 172.978 73.8952C172.842 73.734 172.583 73.6536 172.198 73.6536C171.885 73.6536 171.489 73.7165 171.014 73.8423L170.916 73.4402C171.105 73.3746 171.341 73.3172 171.622 73.2679C171.904 73.2185 172.131 73.1938 172.304 73.1938C172.812 73.1938 173.176 73.3073 173.395 73.5342C173.615 73.7623 173.725 74.1273 173.725 74.63ZM173.181 76.9264V75.606C172.884 75.5463 172.578 75.5157 172.264 75.5157C171.512 75.5157 171.136 75.7867 171.136 76.3277C171.136 76.8145 171.504 77.0577 172.24 77.0577C172.586 77.0577 172.9 77.0139 173.181 76.9264Z" fill="#24408D"/>
<path d="M177.758 76.9347L177.839 77.3363C177.579 77.4239 177.292 77.4677 176.978 77.4677C176.567 77.4677 176.293 77.3869 176.155 77.2261C176.017 77.0649 175.948 76.7791 175.948 76.3691V73.695H175.38V73.2687H175.948V72.227L176.467 72.1533V73.2687H177.83L177.749 73.695H176.459V76.4511C176.459 76.555 176.463 76.6342 176.471 76.6891C176.479 76.7436 176.5 76.8025 176.532 76.865C176.565 76.9279 176.62 76.9729 176.698 77.0004C176.777 77.0278 176.881 77.0418 177.011 77.0418C177.249 77.0414 177.498 77.0056 177.758 76.9347Z" fill="#24408D"/>
<path d="M182.156 75.4993C182.156 73.974 182.773 73.2109 184.007 73.2109C184.298 73.2109 184.65 73.2575 185.062 73.3506V71.5463H185.573V77.2714C184.924 77.4187 184.401 77.4927 184.007 77.4927C182.773 77.4923 182.156 76.828 182.156 75.4993ZM185.062 76.91L185.046 73.8426C184.699 73.7224 184.348 73.6623 183.99 73.6623C183.541 73.6623 183.219 73.8183 183.025 74.1296C182.83 74.4413 182.732 74.8955 182.732 75.4913C182.732 76.0601 182.859 76.463 183.114 76.701C183.369 76.939 183.72 77.0577 184.169 77.0577C184.434 77.0577 184.732 77.0083 185.062 76.91Z" fill="#24408D"/>
<path d="M190.579 74.63V77.2217C190.093 77.3965 189.54 77.484 188.924 77.484C188.496 77.484 188.145 77.3937 187.869 77.2134C187.593 77.033 187.455 76.7457 187.455 76.352C187.455 76.1171 187.498 75.9161 187.585 75.7493C187.671 75.5825 187.791 75.4556 187.946 75.368C188.1 75.2804 188.264 75.2175 188.437 75.1789C188.61 75.1407 188.799 75.1216 189.005 75.1216C189.335 75.1216 189.678 75.165 190.035 75.2526V74.6623C190.035 74.3124 189.967 74.0568 189.832 73.8952C189.697 73.734 189.437 73.6536 189.053 73.6536C188.739 73.6536 188.344 73.7165 187.868 73.8423L187.771 73.4402C187.96 73.3746 188.195 73.3172 188.477 73.2679C188.758 73.2185 188.985 73.1938 189.158 73.1938C189.667 73.1938 190.031 73.3073 190.25 73.5342C190.47 73.7623 190.579 74.1273 190.579 74.63ZM190.036 76.9264V75.606C189.738 75.5463 189.433 75.5157 189.119 75.5157C188.367 75.5157 187.991 75.7867 187.991 76.3277C187.991 76.8145 188.359 77.0577 189.095 77.0577C189.441 77.0577 189.754 77.0139 190.036 76.9264Z" fill="#24408D"/>
<path d="M192.649 73.572C193.342 73.2985 193.95 73.162 194.475 73.162C194.913 73.162 195.251 73.2603 195.489 73.4569C195.727 73.654 195.847 74.0066 195.847 74.515V77.3857H195.344V74.6463C195.344 74.2471 195.259 73.9776 195.092 73.8383C194.924 73.699 194.667 73.6293 194.321 73.6293C193.845 73.6293 193.458 73.7224 193.161 73.9083V77.3857H192.649V73.572Z" fill="#24408D"/>
<path d="M203.258 72.3344L203.801 72.3483L205.482 76.8017L205.991 71.9069H206.567L205.902 77.3857H205.164L203.56 73.019L201.982 77.3857H201.107L200.554 71.9069H201.126L201.61 76.7997L203.258 72.3344Z" fill="#24408D"/>
<path d="M211.257 74.63V77.2217C210.77 77.3965 210.218 77.484 209.602 77.484C209.174 77.484 208.822 77.3937 208.547 77.2134C208.271 77.033 208.133 76.7457 208.133 76.352C208.133 76.1171 208.176 75.9161 208.262 75.7493C208.349 75.5825 208.469 75.4556 208.624 75.368C208.778 75.2804 208.941 75.2175 209.115 75.1789C209.288 75.1407 209.477 75.1216 209.683 75.1216C210.013 75.1216 210.356 75.165 210.713 75.2526V74.6623C210.713 74.3124 210.645 74.0568 210.51 73.8952C210.375 73.734 210.115 73.6536 209.731 73.6536C209.417 73.6536 209.022 73.7165 208.546 73.8423L208.449 73.4402C208.638 73.3746 208.873 73.3172 209.154 73.2679C209.436 73.2185 209.663 73.1938 209.836 73.1938C210.345 73.1938 210.709 73.3073 210.928 73.5342C211.148 73.7623 211.257 74.1273 211.257 74.63ZM210.713 76.9264V75.606C210.416 75.5463 210.11 75.5157 209.796 75.5157C209.045 75.5157 208.668 75.7867 208.668 76.3277C208.668 76.8145 209.037 77.0577 209.772 77.0577C210.119 77.0577 210.432 77.0139 210.713 76.9264Z" fill="#24408D"/>
<path d="M213.846 71.6442V74.8676H214.494L215.761 73.2683H216.41L214.958 75.0726L216.67 77.3857H216.029L214.485 75.327H213.846V77.3857H213.335V71.7262L213.846 71.6442Z" fill="#24408D"/>
<path d="M221.06 74.63V77.2217C220.574 77.3965 220.021 77.484 219.405 77.484C218.977 77.484 218.626 77.3937 218.35 77.2134C218.074 77.033 217.936 76.7457 217.936 76.352C217.936 76.1171 217.979 75.9161 218.066 75.7493C218.152 75.5825 218.272 75.4556 218.427 75.368C218.581 75.2804 218.745 75.2175 218.918 75.1789C219.091 75.1407 219.28 75.1216 219.486 75.1216C219.816 75.1216 220.159 75.165 220.516 75.2526V74.6623C220.516 74.3124 220.448 74.0568 220.313 73.8952C220.178 73.734 219.918 73.6536 219.534 73.6536C219.22 73.6536 218.825 73.7165 218.349 73.8423L218.252 73.4402C218.441 73.3746 218.676 73.3172 218.958 73.2679C219.239 73.2185 219.466 73.1938 219.639 73.1938C220.148 73.1938 220.512 73.3073 220.731 73.5342C220.951 73.7623 221.06 74.1273 221.06 74.63ZM220.517 76.9264V75.606C220.219 75.5463 219.914 75.5157 219.6 75.5157C218.848 75.5157 218.472 75.7867 218.472 76.3277C218.472 76.8145 218.84 77.0577 219.576 77.0577C219.921 77.0577 220.235 77.0139 220.517 76.9264Z" fill="#24408D"/>
<path d="M223.527 77.3857V73.6949H222.708V73.2686H223.527V72.908C223.527 72.3881 223.644 72.0195 223.876 71.8006C224.109 71.5821 224.461 71.4726 224.932 71.4726C225.186 71.4726 225.462 71.4977 225.759 71.5467L225.678 71.973C225.381 71.9403 225.121 71.924 224.899 71.924C224.601 71.924 224.383 71.9897 224.246 72.1206C224.108 72.252 224.039 72.5064 224.039 72.8833V73.269H225.273V73.6953H224.039V77.386H223.527V77.3857Z" fill="#24408D"/>
<path d="M150.147 22.0524C149.664 22.382 149.251 22.8501 148.908 23.4575H148.841L148.681 21.7288H147.527V31.0614H148.925V26.0548C148.925 25.1408 149.191 24.377 149.721 23.764C150.252 23.151 150.891 22.8445 151.638 22.8445C151.93 22.8445 152.267 22.8871 152.649 22.9723L152.842 21.6607C152.517 21.5926 152.148 21.5588 151.739 21.5588C151.161 21.5588 150.63 21.7232 150.147 22.0524ZM138.13 29.6651C137.823 29.3984 137.67 29.0095 137.67 28.4984C137.67 27.8456 137.916 27.3648 138.408 27.0551C138.899 26.7458 139.701 26.571 140.813 26.5312L142.211 26.4719V27.315C142.211 28.1835 141.963 28.859 141.465 29.3415C140.968 29.8239 140.284 30.0651 139.414 30.0651C138.864 30.0651 138.436 29.9318 138.13 29.6651ZM143.61 31.0614V24.6922C143.61 23.6024 143.345 22.8103 142.814 22.3163C142.283 21.8227 141.467 21.5755 140.366 21.5755C139.822 21.5755 139.278 21.6468 138.736 21.7885C138.194 21.9306 137.696 22.1264 137.241 22.376L137.67 23.4575C138.642 22.9806 139.512 22.7422 140.282 22.7422C140.967 22.7422 141.466 22.9169 141.777 23.266C142.089 23.6151 142.245 24.1557 142.245 24.8881V25.4668L140.678 25.5182C137.696 25.609 136.205 26.5969 136.205 28.4813C136.205 29.3614 136.464 30.0396 136.984 30.5165C137.503 30.9934 138.221 31.2318 139.137 31.2318C139.822 31.2318 140.393 31.1279 140.851 30.9209C141.31 30.7139 141.768 30.3179 142.229 29.7331H142.297L142.575 31.0614H143.61ZM132.987 31.0614V24.9733C132.987 23.7927 132.705 22.9309 132.141 22.3887C131.576 21.8466 130.729 21.5755 129.601 21.5755C128.949 21.5755 128.369 21.7049 127.861 21.9632C127.353 22.2215 126.961 22.575 126.686 23.0232H126.601C126.646 22.7052 126.669 22.3051 126.669 21.8227V17.812H125.27V31.0614H126.669V26.1821C126.669 24.9677 126.892 24.0932 127.338 23.5598C127.785 23.026 128.494 22.7593 129.466 22.7593C130.196 22.7593 130.732 22.9464 131.075 23.3214C131.417 23.6959 131.589 24.2635 131.589 25.0242V31.0614H132.987ZM122.069 29.9628H116.972L121.943 22.8274V21.7288H115.683V22.8274H120.409L115.371 30.0994V31.0614H122.069V29.9628ZM106.197 25.7992L107.646 21.9417C107.877 21.2889 108.053 20.6902 108.177 20.1449C108.374 20.8546 108.565 21.4537 108.75 21.9417L110.182 25.7992H106.197ZM113.645 31.0614L108.801 18.5615H107.596L102.727 31.0614H104.176L105.692 27.102H110.629L112.163 31.0614H113.645ZM94.6907 17.812H93.2921V31.0614H94.6907V17.812ZM83.3259 25.7992L84.7753 21.9417C85.0057 21.2889 85.1825 20.6902 85.3062 20.1449C85.5027 20.8546 85.6937 21.4537 85.8788 21.9417L87.3112 25.7992H83.3259ZM90.7743 31.0614L85.93 18.5615H84.7252L79.855 31.0614H81.3039L82.8206 27.102H87.7578L89.2911 31.0614H90.7743Z" fill="#24408D"/>
<path d="M39.8472 74.5523C55.0522 74.5523 67.3779 62.6152 67.3779 47.8905C67.3779 33.1655 55.0522 21.2288 39.8472 21.2288C24.6422 21.2288 12.3164 33.1655 12.3164 47.8905C12.3164 62.6148 24.6422 74.5523 39.8472 74.5523Z" fill="#24408D"/>
<path d="M39.8472 74.5519C55.052 74.5519 67.3779 62.615 67.3779 47.8901C67.3779 33.1652 55.052 21.2283 39.8472 21.2283C24.6423 21.2283 12.3164 33.1652 12.3164 47.8901C12.3164 62.615 24.6423 74.5519 39.8472 74.5519Z" stroke="#24408D" stroke-width="0.813"/>
<path d="M10.1978 47.8897C10.1978 64.2659 23.473 77.5416 39.8482 77.5416C56.2238 77.5416 69.4978 64.2655 69.4978 47.8897C69.4978 31.5131 56.2238 18.2382 39.8482 18.2382C23.473 18.2382 10.1978 31.5131 10.1978 47.8897Z" fill="#24408D"/>
<path d="M22.8899 69.1201C27.6019 73.3963 33.9354 76.0024 40.8447 76.0024C50.4195 76.0024 58.6658 70.8194 63.3942 63.2978H58.2897C60.8249 60.656 62.4382 58.5937 62.4382 55.0466C62.4382 48.4963 55.5671 47.4108 50.6126 42.7425C45.6586 47.4112 38.4772 48.4967 38.4772 55.047C38.4772 58.5937 40.0904 60.6564 42.624 63.2982H38.6206V66.1383H42.3511V68.7224H32.1639L30.8728 46.026H32.4988V44.5035H31.064V42.5049H32.4031V40.9823H30.5859C31.8059 40.1735 32.5617 39.2453 32.5712 37.7705C32.5942 34.1307 29.1749 34.9388 27.6438 32.6309C26.1136 34.9388 22.6544 34.1307 22.6779 37.7705C22.6873 39.2453 23.4436 40.1735 24.6631 40.9823H22.8451V42.5049H24.1851V44.5035H22.7502V46.026H24.3762L23.0178 69.1145L22.8899 69.1201Z" fill="white"/>
<path d="M25.4556 42.3883H26.4054V44.3455H25.4556V42.3883ZM29.1885 42.3883H30.1384V44.3455H29.1885V42.3883ZM27.4268 42.3883H28.3771V44.3455H27.4268V42.3883Z" fill="#24408D"/>
<path d="M54.744 37.9317C55.0691 39.8806 53.9396 41.8274 52.0222 42.4559C49.9108 43.1481 47.6431 41.9827 46.9571 39.8523C46.5034 38.44 46.8573 36.9589 47.7985 35.9072C47.5116 36.6456 47.473 37.454 47.7266 38.2426C48.3443 40.158 50.3826 41.2069 52.2811 40.5843C53.5389 40.1715 54.4727 39.1446 54.744 37.9317Z" fill="white"/>
<path d="M51.2304 36.6395V38.869L52.5843 37.0639L54.7755 37.7533L53.4228 35.9497L54.7726 34.1462L52.5839 34.8344L51.2313 33.0308V35.2599L49.043 35.9489L51.2304 36.6395Z" fill="white"/>
<path d="M39.8478 77.5417C56.223 77.5417 69.4978 64.266 69.4978 47.8897C69.4978 31.5134 56.223 18.2378 39.8478 18.2378C23.4725 18.2378 10.1978 31.5134 10.1978 47.8897C10.1978 64.266 23.4725 77.5417 39.8478 77.5417Z" stroke="#24408D" stroke-miterlimit="10"/>
<path d="M223.745 37.2977H219.413V63.7796H223.745V37.2977ZM98.9481 50.1165C98.9481 53.3526 98.3389 55.9718 97.1211 57.9764C95.9025 59.981 93.9022 60.9837 91.1185 60.9837C88.8913 60.9837 86.9954 60.6143 85.4294 59.8759V41.4123C87.5515 40.709 89.6574 40.3571 91.7451 40.3571C94.0066 40.3571 95.7722 41.0875 97.0427 42.5464C98.3129 44.006 98.9481 46.5293 98.9481 50.1165ZM100.644 60.6935C102.575 57.9684 103.541 54.425 103.541 50.0635C103.541 45.246 102.54 41.8343 100.54 39.8301C98.5385 37.8255 95.7982 36.8232 92.3193 36.8232C88.9087 36.8232 85.1683 37.5091 81.0972 38.8803V76.3352H85.4294V63.7799C87.5515 64.4479 89.4136 64.7826 91.0141 64.7826C95.5032 64.7818 98.713 63.4193 100.644 60.6935ZM128.595 46.3708C128.595 46.7932 128.577 47.1096 128.543 47.3206H115.546C115.546 46.7585 115.668 46.1252 115.911 45.4215C116.154 44.7181 116.52 43.9535 117.007 43.1267C117.494 42.3008 118.234 41.6058 119.226 41.0429C120.218 40.4809 121.357 40.1991 122.645 40.1991C124.489 40.1991 125.941 40.7356 127.003 41.808C128.064 42.8811 128.595 44.4017 128.595 46.3708ZM132.666 50.8023C132.944 49.2197 133.084 47.8663 133.084 46.7402C133.084 43.5749 132.196 41.1138 130.422 39.3548C128.647 37.5966 126.002 36.7173 122.488 36.7173C118.66 36.7173 115.755 38.054 113.771 40.7265C111.788 43.3994 110.796 46.6531 110.796 50.4859C110.796 59.8412 114.954 64.5179 123.271 64.5179C126.82 64.5179 129.796 64.0431 132.196 63.0937L131.622 59.4535C129.604 60.3332 127.377 60.7723 124.941 60.7723C121.81 60.7723 119.443 59.9901 117.843 58.4254C116.242 56.8606 115.441 54.3199 115.441 50.8027H132.666V50.8023ZM153.595 60.9837C150.916 60.9837 148.82 60.2102 147.306 58.6622C145.792 57.1154 145.036 54.706 145.036 51.4352C145.036 43.9798 147.767 40.2516 153.23 40.2516C155.039 40.2516 156.832 40.5681 158.606 41.2014V60.2449C156.762 60.7381 155.091 60.9837 153.595 60.9837ZM152.656 64.4125C154.953 64.4125 158.379 63.9722 162.939 63.0937V26.2196H158.606V37.5087C156.901 36.9462 154.865 36.6644 152.499 36.6644C148.184 36.6644 145.07 38.0014 143.156 40.6736C141.243 43.3469 140.286 46.9512 140.286 51.4878C140.286 53.9851 140.607 56.104 141.251 57.8446C141.894 59.5857 142.808 60.922 143.991 61.8534C145.174 62.786 146.461 63.4452 147.854 63.8321C149.245 64.2186 150.846 64.4125 152.656 64.4125ZM182.407 64.5179C186.165 64.5179 189.853 63.8667 193.473 62.5659V37.2977H189.088V59.9814C187.243 60.5796 185.469 60.8782 183.764 60.8782C181.468 60.8782 179.727 60.4296 178.545 59.5328C177.362 58.636 176.77 57.0453 176.77 54.7589V37.2977H172.385V55.0225C172.386 61.3526 175.726 64.5179 182.407 64.5179ZM208.922 64.5179C210.313 64.5179 212.341 64.5255 214.117 64.3703L214.107 60.9287C212.709 60.9287 210.881 60.9287 210.017 60.7719C208.476 60.4933 207.669 59.9109 207.669 58.1873V26.204H203.18V58.5042C203.18 62.5134 205.094 64.5179 208.922 64.5179Z" fill="#24408D"/>
<path d="M92.3192 35.1407C88.7462 35.1407 84.7936 35.862 80.5708 37.2842C79.8911 37.5131 79.4326 38.1559 79.4326 38.88V76.3349C79.4326 77.264 80.1778 78.0171 81.097 78.0171H85.4293C86.3481 78.0171 87.0937 77.264 87.0937 76.3349V65.9749C88.5178 66.3001 89.8305 66.4641 91.014 66.4641C96.0497 66.4641 99.7451 64.852 101.997 61.6727C104.126 58.669 105.205 54.7634 105.205 50.0636C105.205 44.7293 104.062 40.9913 101.711 38.6352C99.3961 36.3166 96.2363 35.1407 92.3192 35.1407ZM99.2914 59.7143C97.6774 61.9928 94.9697 63.1001 91.014 63.1001C89.5898 63.1001 87.8774 62.7885 85.9243 62.1739C85.4194 62.0147 84.8692 62.1082 84.4431 62.425C84.017 62.7423 83.7653 63.245 83.7653 63.7796V74.6527H82.7614V40.1084C86.2107 39.044 89.4213 38.505 92.3192 38.505C95.3699 38.505 97.6758 39.329 99.3682 41.0243C101.033 42.6921 101.877 45.7336 101.877 50.0636C101.877 54.0461 101.007 57.293 99.2914 59.7143Z" fill="#24408D"/>
<path d="M91.7447 38.6751C89.49 38.6751 87.1907 39.0584 84.9103 39.8143C84.227 40.0408 83.7646 40.6857 83.7646 41.4125V59.876C83.7646 60.5296 84.1392 61.1239 84.7248 61.4002C86.5054 62.2397 88.6562 62.666 91.1177 62.666C95.3373 62.666 97.4822 60.5949 98.5385 58.857C99.9138 56.5929 100.611 53.6521 100.611 50.1171C100.611 46.0697 99.8524 43.23 98.2908 41.4352C96.6965 39.6038 94.4937 38.6751 91.7447 38.6751ZM95.7028 57.0961C94.7879 58.6007 93.3311 59.3017 91.1181 59.3017C89.5931 59.3017 88.2446 59.1106 87.0934 58.732V42.6679C88.6566 42.2504 90.2162 42.039 91.7447 42.039C93.5202 42.039 94.8446 42.5684 95.7926 43.6571C96.4728 44.4385 97.2833 46.1939 97.2833 50.1167C97.2833 53.0212 96.7516 55.3697 95.7028 57.0961Z" fill="#24408D"/>
<path d="M223.745 35.6156H219.412C218.493 35.6156 217.748 36.3687 217.748 37.2977V63.7796C217.748 64.7086 218.493 65.4617 219.412 65.4617H223.745C224.664 65.4617 225.409 64.7086 225.409 63.7796V37.2977C225.409 36.3687 224.664 35.6156 223.745 35.6156ZM222.081 62.0974H221.077V38.9795H222.081V62.0974Z" fill="#24408D"/>
<path d="M122.488 35.0356C118.127 35.0356 114.746 36.6111 112.44 39.7175C110.245 42.6754 109.132 46.2985 109.132 50.4859C109.132 63.4739 116.821 66.2002 123.271 66.2002C127.011 66.2002 130.219 65.6819 132.802 64.6601C133.531 64.3719 133.962 63.6101 133.84 62.8291L133.265 59.1889C133.185 58.6762 132.874 58.23 132.424 57.98C131.974 57.7297 131.434 57.7038 130.963 57.9092C129.165 58.6929 127.138 59.0902 124.941 59.0902C122.27 59.0902 120.271 58.4597 118.999 57.2162C117.989 56.229 117.379 54.6412 117.179 52.4842H132.666C133.473 52.4842 134.163 51.899 134.304 51.0966C134.598 49.4236 134.747 47.9579 134.747 46.7403C134.747 43.122 133.684 40.233 131.586 38.154C129.498 36.0845 126.437 35.0356 122.488 35.0356ZM131.242 49.1202H115.441C114.522 49.1202 113.777 49.8733 113.777 50.8024C113.777 54.7765 114.756 57.748 116.685 59.6339C118.599 61.5056 121.376 62.4545 124.94 62.4545C126.826 62.4545 128.618 62.2073 130.293 61.7173L130.332 61.9585C128.358 62.5413 125.99 62.8358 123.27 62.8358C115.895 62.8358 112.46 58.9119 112.46 50.4859C112.46 47.0424 113.349 44.0984 115.102 41.736C116.768 39.491 119.184 38.3996 122.487 38.3996C125.534 38.3996 127.812 39.1252 129.256 40.5558C130.711 41.9983 131.419 44.0212 131.419 46.7403C131.419 47.4257 131.36 48.2226 131.242 49.1202Z" fill="#24408D"/>
<path d="M159.16 39.6152C157.216 38.9214 155.22 38.5695 153.23 38.5695C148.733 38.5695 143.372 40.8014 143.372 51.4349C143.372 55.1499 144.297 57.9792 146.122 59.8441C147.952 61.7161 150.467 62.6655 153.595 62.6655C155.23 62.6655 157.059 62.398 159.032 61.8706C159.763 61.6755 160.271 61.0076 160.271 60.2445V41.2014C160.271 40.4881 159.826 39.8528 159.16 39.6152ZM156.942 58.9158C155.729 59.1726 154.607 59.302 153.595 59.302C151.358 59.302 149.688 58.7061 148.489 57.4797C147.302 56.2664 146.7 54.2332 146.7 51.4353C146.7 42.9186 150.427 41.9338 153.23 41.9338C154.469 41.9338 155.712 42.103 156.942 42.4386V58.9158Z" fill="#24408D"/>
<path d="M193.472 35.6156H189.088C188.169 35.6156 187.424 36.3687 187.424 37.2977V58.714C186.161 59.0344 184.935 59.1961 183.764 59.1961C181.846 59.1961 180.426 58.8565 179.543 58.187C178.807 57.6293 178.434 56.4758 178.434 54.759V37.2977C178.434 36.3691 177.689 35.6156 176.769 35.6156H172.385C171.466 35.6156 170.721 36.3687 170.721 37.2977V55.0225C170.721 62.3351 174.762 66.2001 182.406 66.2001C186.336 66.2001 190.247 65.5107 194.03 64.151C194.693 63.9121 195.136 63.2781 195.136 62.5663V37.2981C195.136 36.3687 194.392 35.6156 193.472 35.6156ZM191.808 61.3567C188.731 62.3391 185.575 62.8362 182.407 62.8362C176.627 62.8362 174.049 60.4264 174.049 55.0225V38.9795H175.105V54.7586C175.105 57.5915 175.927 59.6506 177.546 60.8778C179.038 62.0099 181.072 62.56 183.764 62.56C185.635 62.56 187.597 62.2312 189.596 61.5828C190.285 61.3591 190.752 60.7118 190.752 59.9814V38.9795H191.808V61.3567H191.808Z" fill="#24408D"/>
<path d="M162.939 24.5374H158.607C157.688 24.5374 156.942 25.2906 156.942 26.2196V35.3584C155.593 35.1085 154.108 34.9823 152.499 34.9823C147.641 34.9823 144.044 36.5653 141.809 39.6876C139.694 42.6412 138.622 46.6113 138.622 51.4882C138.622 54.1766 138.982 56.5136 139.692 58.433C140.442 60.4618 141.544 62.0588 142.968 63.1797C144.319 64.2449 145.814 65.01 147.413 65.4542C148.943 65.8793 150.707 66.0946 152.656 66.0946C155.076 66.0946 158.541 65.6536 163.25 64.7457C164.035 64.5944 164.603 63.901 164.603 63.0938V26.2196C164.603 25.291 163.858 24.5374 162.939 24.5374ZM161.275 61.695C157.501 62.3828 154.606 62.7307 152.656 62.7307C151.006 62.7307 149.538 62.556 148.295 62.2105C147.122 61.8845 146.018 61.3181 145.014 60.5267C144.083 59.7935 143.341 58.6933 142.81 57.2556C142.239 55.7131 141.95 53.7726 141.95 51.4882C141.95 47.3346 142.81 44.0276 144.504 41.66C146.101 39.4305 148.716 38.3466 152.499 38.3466C154.677 38.3466 156.558 38.6029 158.09 39.1081C158.597 39.2748 159.152 39.1873 159.583 38.8704C160.015 38.554 160.27 38.0481 160.27 37.5091V27.9018H161.274V61.695H161.275Z" fill="#24408D"/>
<path d="M214.107 59.247C212.881 59.247 211.029 59.247 210.31 59.1169C209.396 58.9517 209.333 58.8908 209.333 58.1878V26.2041C209.333 25.2755 208.587 24.5219 207.668 24.5219H203.18C202.261 24.5219 201.516 25.2751 201.516 26.2041V58.5043C201.516 63.4671 204.146 66.2002 208.921 66.2002H209.299C210.846 66.2002 212.633 66.1882 214.26 66.0461C215.122 65.9709 215.783 65.2405 215.781 64.3655L215.771 60.924C215.768 59.9969 215.024 59.247 214.107 59.247ZM209.299 62.8358H208.921C206.025 62.8358 204.844 61.5808 204.844 58.5039V27.8859H206.004V58.1874C206.004 61.7551 208.804 62.2611 209.723 62.4274C210.369 62.5445 211.301 62.5871 212.447 62.6022L212.448 62.7877C211.384 62.8315 210.291 62.8358 209.299 62.8358Z" fill="#24408D"/>
<path d="M122.644 38.517C121.075 38.517 119.651 38.8733 118.411 39.5766C117.166 40.2827 116.213 41.1875 115.578 42.2658C115.035 43.1873 114.618 44.0626 114.341 44.8659C114.036 45.7452 113.881 46.5711 113.881 47.3207C113.881 47.7669 114.057 48.1944 114.369 48.51C114.681 48.8257 115.104 49.0028 115.546 49.0028H128.543C129.357 49.0028 130.053 48.4057 130.185 47.5929C130.235 47.2825 130.259 46.8944 130.259 46.3713C130.259 43.9504 129.56 42.0155 128.179 40.6183C126.799 39.2239 124.936 38.517 122.644 38.517ZM117.608 45.6385C117.81 45.1338 118.088 44.5801 118.437 43.9878C118.771 43.4214 119.31 42.9242 120.04 42.5102C120.787 42.0871 121.639 41.8813 122.644 41.8813C124.041 41.8813 125.082 42.2463 125.825 42.997C126.444 43.6228 126.798 44.4913 126.9 45.6389H117.608V45.6385Z" fill="#24408D"/>
<path d="M83.4048 40.5505C83.4048 40.5505 95.6939 34.4699 99.5343 40.5505C103.374 46.6311 101.07 55.6876 97.9979 58.4046C94.9259 61.1213 90.0611 66.8142 86.7332 60.0864C83.4048 53.3594 83.4048 46.7553 83.4048 46.4345V40.5505Z" fill="#24408D"/>
<path d="M83.3843 42.3883C91.6625 41.6555 95.5683 45.6655 97.3189 48.6918C97.8474 46.9902 99.1034 45.1182 101.834 43.5892C108.702 39.7425 102.369 50.8154 100.647 52.916C99.8734 53.8597 99.2818 54.5396 98.8104 54.8298C98.4146 55.0857 97.6808 55.2887 96.6809 55.5343C94.4513 56.0812 83.7214 56.8447 89.1888 52.9745C89.3802 52.8391 89.5684 52.7181 89.7555 52.6015C83.111 49.5361 72.8986 43.3166 83.3843 42.3883Z" fill="white"/>
<path d="M96.1802 46.099C96.1802 46.099 102.347 53.8562 98.5255 55.5611" stroke="#24408D" stroke-width="2.784"/>
<path d="M103.585 54.3744C103.585 54.3744 97.3874 54.2542 89.9981 58.6304C89.9981 58.6304 88.9655 59.3067 90.2207 57.9047C91.4762 56.5024 101.74 49.7574 103.585 54.3744Z" fill="white"/>
<path d="M101.855 53.3412C101.855 53.3412 103.775 50.3327 106.079 51.9504" stroke="white" stroke-width="1.3"/>
<path d="M104.684 45.4294C104.684 45.4294 105.272 43.2684 104.961 43.0292C104.961 43.0292 106.454 43.9347 104.684 49.1432" fill="#24408D"/>
<path d="M79.8548 43.2036C79.8548 43.2036 78.6079 43.8576 79.1006 45.3391C79.1006 45.3391 77.5918 43.4627 79.8548 41.0111" fill="#24408D"/>
<path d="M98.0381 47.7581C98.0381 47.7581 99.589 50.4413 99.1794 53.1142C98.7698 55.7875 100.459 53.3057 100.459 53.3057L100.653 51.6649L99.9986 47.7581H98.0381Z" fill="white"/>
<path d="M91.3073 42.2638C91.3073 42.2638 81.3534 45.3789 82.4754 53.4808C82.4754 53.4808 81.4656 46.1269 93.7263 43.2951" fill="#24408D"/>
<path d="M90.6648 44.2194C90.6648 44.2194 80.7108 47.3345 81.8328 55.4364C81.8328 55.4364 80.823 48.0824 93.0838 45.2507" fill="white"/>
<defs>
<linearGradient id="paint0_linear_1038_12992" x1="247.365" y1="85.005" x2="247.365" y2="22.4242" gradientUnits="userSpaceOnUse">
<stop stop-color="#1B2E5A" stop-opacity="0"/>
<stop offset="0.067" stop-color="#1B2E5A" stop-opacity="0.133"/>
<stop offset="0.502" stop-color="#24408D"/>
<stop offset="0.965" stop-color="#1B2E5A" stop-opacity="0.071"/>
<stop offset="1" stop-color="#1B2E5A" stop-opacity="0"/>
</linearGradient>
</defs>
</svg>
